# This file uses centimeters as units for non-parametric coordinates.

mtllib Rock1_low.mtl
g default
v 3.766022 3.377253 -4.528461
v 1.173981 3.377253 -6.679196
v -2.105743 3.377253 -5.500541
v -4.151947 3.377253 -0.687363
v -3.766083 3.377253 4.528461
v -1.174042 3.377253 7.091576
v 2.105682 3.377253 5.500542
v 4.151886 3.377253 0.687364
v 3.766022 4.737170 -4.528461
v 1.173981 4.737170 -6.182881
v -2.105743 4.737170 -5.500541
v -4.151947 4.637223 -0.687363
v -3.766083 4.637223 4.528461
v -1.174042 4.637223 7.091576
v 2.105682 4.737170 5.500542
v 4.151947 4.737170 0.687364
v 2.850922 6.097086 -3.428127
v 0.888702 6.097086 -4.459755
v -1.594086 5.954522 -4.164008
v -3.143097 5.305805 -0.520346
v -2.850983 5.305805 3.428128
v -0.888763 5.305805 5.368451
v 1.594025 5.825373 4.164009
v 3.143036 6.097086 0.520347
v -0.000031 6.097086 0.000001
v 3.398407 2.645980 -4.086418
v 1.059418 2.645980 -6.399335
v -0.000031 2.347232 0.000001
v -1.900177 2.645980 -4.963609
v -3.746674 2.645980 -0.620267
v -3.398468 2.645980 4.086419
v -1.059479 2.645980 6.399336
v 1.900116 2.645980 4.963610
v 3.746613 2.645980 0.620267
v -3.144196 -3.261484 9.934769
v 2.814484 -2.634611 12.402037
v 7.124542 -2.450239 7.604359
v 6.481415 -2.090124 -1.647846
v 3.144135 -1.967445 -9.934767
v -2.814606 -1.967445 -12.402033
v -7.124603 -1.967445 -7.604358
v -7.964935 -2.652915 1.647848
v -3.144196 0.801404 9.934769
v 2.814484 0.801404 12.402037
v 7.124542 0.801404 7.604359
v 6.481415 0.624576 -1.647846
v 3.144135 0.624576 -9.934767
v -2.814606 0.624576 -12.402033
v -7.124603 0.801404 -7.604358
v -7.964935 0.801404 1.647849
v -2.380219 3.207409 7.520798
v 2.130646 3.207409 9.388564
v 5.393402 2.955179 5.756638
v 5.496735 1.807451 -1.247449
v 2.380157 1.807451 -7.520797
v -2.130707 1.807451 -9.388562
v -5.393463 2.726686 -5.756637
v -5.496796 3.207409 1.247450
v -0.000031 3.207409 0.000002
v -2.837311 -5.037422 8.964993
v 2.539764 -4.410546 11.191421
v -0.000031 -3.426941 0.000001
v 6.429047 -3.744026 6.862064
v 6.552277 -3.383912 -1.486992
v 2.837250 -3.261233 -8.964991
v -2.539825 -3.261233 -11.191417
v -6.429108 -3.261233 -6.862063
v -6.552338 -4.428852 1.486994
v 9.103546 -8.198103 -13.287115
v -0.000031 -8.198103 -18.790819
v -9.103607 -8.198103 -13.287115
v -12.874420 -8.198103 0.000000
v -9.103607 -8.198103 13.287115
v -0.000031 -8.198103 18.790819
v 9.103546 -8.198103 13.287117
v 12.874359 -8.198103 0.000000
v 9.103546 -5.728875 -13.287115
v -0.000031 -5.728875 -18.790819
v -9.103607 -5.728875 -13.287115
v -12.874420 -5.910351 0.000000
v -9.103607 -5.910351 13.287115
v -0.000031 -5.910351 18.790819
v 9.103546 -5.728875 13.287117
v 12.874420 -5.728875 0.000000
v 6.891571 -3.259647 -10.058586
v -0.000031 -3.259647 -14.224987
v -6.891571 -3.518506 -10.058586
v -9.746185 -4.696393 0.000000
v -6.891571 -4.696393 10.058587
v -0.000031 -4.696393 14.224989
v 6.891571 -3.753003 10.058587
v 9.746124 -3.259647 0.000000
v -0.000031 -3.259647 0.000000
v 8.214935 -9.525888 -11.990102
v -0.000031 -9.525888 -16.956566
v -0.000031 -10.068330 0.000000
v -8.214996 -9.525888 -11.990102
v -11.617706 -9.525888 0.000000
v -8.214996 -9.525888 11.990102
v -0.000031 -9.525888 16.956566
v 8.214935 -9.525888 11.990102
v 11.617645 -9.525888 0.000000
v -1.023834 8.287420 2.520006
v 0.121124 8.287420 3.145585
v 1.195160 8.287420 2.404740
v 1.569000 8.287420 0.731449
v 1.023773 8.287420 -0.894097
v -0.121185 8.287420 -1.519676
v -1.195221 8.287420 -0.778832
v -1.569061 8.287420 0.894459
v -1.023834 9.177875 2.520006
v 0.121124 9.177875 3.145585
v 1.195160 9.000436 2.404740
v 1.569000 9.112431 0.731449
v 1.023773 9.112431 -0.894097
v -0.121185 9.112431 -1.519676
v -1.195221 9.177875 -0.778832
v -1.569061 9.177875 0.894459
v -0.775055 9.742559 2.105223
v 0.091705 9.742559 2.578797
v 0.904755 9.797540 2.017965
v 1.187775 9.550210 0.751254
v 0.774994 9.796983 -0.479315
v -0.091766 9.796983 -0.952889
v -0.904816 9.890417 -0.392057
v -1.187836 10.068330 0.874655
v -0.000031 10.068330 0.812954
v -0.923920 7.808593 2.353373
v 0.109283 7.808593 2.917886
v -0.000031 7.612978 0.812954
v 1.078461 7.808593 2.249359
v 1.415863 7.808593 0.739405
v 0.923859 7.808593 -0.727464
v -0.109344 7.808593 -1.291978
v -1.078522 7.808593 -0.623451
v -1.415924 7.808593 0.886503
v -2.968109 6.033042 2.867988
v -1.485016 5.796790 4.825543
v 0.867950 5.885720 4.088683
v 2.712494 6.247739 1.089047
v 2.968048 6.670783 -2.416215
v 1.484955 6.907035 -4.373771
v -0.868011 6.818105 -3.636910
v -2.712555 6.456086 -0.637274
v -2.968109 6.946860 2.978274
v -1.485016 6.710606 4.935830
v 0.867950 6.799536 4.198969
v 2.712494 7.094395 1.191229
v 2.968048 7.517438 -2.314034
v 1.484955 7.753692 -4.271590
v -0.868011 7.731923 -3.526623
v -2.712555 7.369903 -0.526989
v -2.246918 7.938156 2.446579
v -1.124176 7.759308 3.928482
v 0.657074 7.730831 3.359104
v 2.053375 7.568971 1.035717
v 2.246857 7.889223 -1.617831
v 1.124115 8.068071 -3.099735
v -0.657135 8.349881 -2.499782
v -2.053436 8.258407 -0.206968
v -0.000031 8.179547 0.446460
v -2.678375 5.572780 2.550776
v -1.340057 5.359588 4.317245
v -0.000031 5.659775 0.142354
v 0.783234 5.439837 3.652313
v 2.447723 5.766519 0.945486
v 2.678314 6.148266 -2.217613
v 1.339996 6.361458 -3.984083
v -0.783295 6.281209 -3.319150
v -2.447784 5.954527 -0.612322
vt 0.610485 0.045765
vt 0.500000 0.000000
vt 0.389515 0.045765
vt 0.343750 0.156250
vt 0.389515 0.266735
vt 0.500000 0.312500
vt 0.610485 0.266735
vt 0.656250 0.156250
vt 0.375000 0.312500
vt 0.406250 0.312500
vt 0.437500 0.312500
vt 0.468750 0.312500
vt 0.500000 0.312500
vt 0.531250 0.312500
vt 0.562500 0.312500
vt 0.593750 0.312500
vt 0.625000 0.312500
vt 0.375000 0.500470
vt 0.406250 0.500470
vt 0.437500 0.500470
vt 0.468750 0.500470
vt 0.500000 0.500470
vt 0.531250 0.500470
vt 0.562500 0.500470
vt 0.593750 0.500470
vt 0.625000 0.500470
vt 0.375000 0.688440
vt 0.406250 0.688440
vt 0.437500 0.688440
vt 0.468750 0.688440
vt 0.500000 0.688440
vt 0.531250 0.688440
vt 0.562500 0.688440
vt 0.593750 0.688440
vt 0.625000 0.688440
vt 0.610485 0.733265
vt 0.500000 0.687500
vt 0.389515 0.733265
vt 0.343750 0.843750
vt 0.389515 0.954235
vt 0.500000 1.000000
vt 0.610485 0.954235
vt 0.656250 0.843750
vt 0.500000 0.150000
vt 0.500000 0.837500
vt 0.500000 0.000000
vt 0.610485 0.045765
vt 0.389515 0.045765
vt 0.343750 0.156250
vt 0.389515 0.266735
vt 0.500000 0.312500
vt 0.610485 0.266735
vt 0.656250 0.156250
vt 0.375000 0.312500
vt 0.406250 0.312500
vt 0.406250 0.500470
vt 0.375000 0.500470
vt 0.437500 0.312500
vt 0.437500 0.500470
vt 0.468750 0.312500
vt 0.468750 0.500470
vt 0.500000 0.312500
vt 0.500000 0.500470
vt 0.531250 0.312500
vt 0.531250 0.500470
vt 0.562500 0.312500
vt 0.562500 0.500470
vt 0.593750 0.312500
vt 0.593750 0.500470
vt 0.625000 0.312500
vt 0.625000 0.500470
vt 0.406250 0.688440
vt 0.375000 0.688440
vt 0.437500 0.688440
vt 0.468750 0.688440
vt 0.500000 0.688440
vt 0.531250 0.688440
vt 0.562500 0.688440
vt 0.593750 0.688440
vt 0.625000 0.688440
vt 0.500000 0.000000
vt 0.610485 0.045765
vt 0.500000 0.150000
vt 0.389515 0.045765
vt 0.343750 0.156250
vt 0.389515 0.266735
vt 0.500000 0.312500
vt 0.610485 0.266735
vt 0.656250 0.156250
vt 0.610485 0.954235
vt 0.500000 1.000000
vt 0.500000 0.837500
vt 0.389515 0.954235
vt 0.343750 0.843750
vt 0.389515 0.733265
vt 0.500000 0.687500
vt 0.610485 0.733265
vt 0.656250 0.843750
vt 0.500000 0.000000
vt 0.610485 0.045765
vt 0.389515 0.045765
vt 0.343750 0.156250
vt 0.389515 0.266735
vt 0.500000 0.312500
vt 0.610485 0.266735
vt 0.656250 0.156250
vt 0.375000 0.312500
vt 0.406250 0.312500
vt 0.406250 0.500470
vt 0.375000 0.500470
vt 0.437500 0.312500
vt 0.437500 0.500470
vt 0.468750 0.312500
vt 0.468750 0.500470
vt 0.500000 0.312500
vt 0.500000 0.500470
vt 0.531250 0.312500
vt 0.531250 0.500470
vt 0.562500 0.312500
vt 0.562500 0.500470
vt 0.593750 0.312500
vt 0.593750 0.500470
vt 0.625000 0.312500
vt 0.625000 0.500470
vt 0.406250 0.688440
vt 0.375000 0.688440
vt 0.437500 0.688440
vt 0.468750 0.688440
vt 0.500000 0.688440
vt 0.531250 0.688440
vt 0.562500 0.688440
vt 0.593750 0.688440
vt 0.625000 0.688440
vt 0.500000 0.000000
vt 0.610485 0.045765
vt 0.500000 0.150000
vt 0.389515 0.045765
vt 0.343750 0.156250
vt 0.389515 0.266735
vt 0.500000 0.312500
vt 0.610485 0.266735
vt 0.656250 0.156250
vt 0.610485 0.954235
vt 0.500000 1.000000
vt 0.500000 0.837500
vt 0.389515 0.954235
vt 0.343750 0.843750
vt 0.389515 0.733265
vt 0.500000 0.687500
vt 0.610485 0.733265
vt 0.656250 0.843750
vt 0.500000 0.000000
vt 0.610485 0.045765
vt 0.389515 0.045765
vt 0.343750 0.156250
vt 0.389515 0.266735
vt 0.500000 0.312500
vt 0.610485 0.266735
vt 0.656250 0.156250
vt 0.375000 0.312500
vt 0.406250 0.312500
vt 0.406250 0.500470
vt 0.375000 0.500470
vt 0.437500 0.312500
vt 0.437500 0.500470
vt 0.468750 0.312500
vt 0.468750 0.500470
vt 0.500000 0.312500
vt 0.500000 0.500470
vt 0.531250 0.312500
vt 0.531250 0.500470
vt 0.562500 0.312500
vt 0.562500 0.500470
vt 0.593750 0.312500
vt 0.593750 0.500470
vt 0.625000 0.312500
vt 0.625000 0.500470
vt 0.406250 0.688440
vt 0.375000 0.688440
vt 0.437500 0.688440
vt 0.468750 0.688440
vt 0.500000 0.688440
vt 0.531250 0.688440
vt 0.562500 0.688440
vt 0.593750 0.688440
vt 0.625000 0.688440
vt 0.500000 0.000000
vt 0.610485 0.045765
vt 0.500000 0.150000
vt 0.389515 0.045765
vt 0.343750 0.156250
vt 0.389515 0.266735
vt 0.500000 0.312500
vt 0.610485 0.266735
vt 0.656250 0.156250
vt 0.610485 0.954235
vt 0.500000 1.000000
vt 0.500000 0.837500
vt 0.389515 0.954235
vt 0.343750 0.843750
vt 0.389515 0.733265
vt 0.500000 0.687500
vt 0.610485 0.733265
vt 0.656250 0.843750
vt 0.500000 0.000000
vt 0.610485 0.045765
vt 0.389515 0.045765
vt 0.343750 0.156250
vt 0.389515 0.266735
vt 0.500000 0.312500
vt 0.610485 0.266735
vt 0.656250 0.156250
vt 0.375000 0.312500
vt 0.406250 0.312500
vt 0.406250 0.500470
vt 0.375000 0.500470
vt 0.437500 0.312500
vt 0.437500 0.500470
vt 0.468750 0.312500
vt 0.468750 0.500470
vt 0.500000 0.312500
vt 0.500000 0.500470
vt 0.531250 0.312500
vt 0.531250 0.500470
vt 0.562500 0.312500
vt 0.562500 0.500470
vt 0.593750 0.312500
vt 0.593750 0.500470
vt 0.625000 0.312500
vt 0.625000 0.500470
vt 0.406250 0.688440
vt 0.375000 0.688440
vt 0.437500 0.688440
vt 0.468750 0.688440
vt 0.500000 0.688440
vt 0.531250 0.688440
vt 0.562500 0.688440
vt 0.593750 0.688440
vt 0.625000 0.688440
vt 0.500000 0.000000
vt 0.610485 0.045765
vt 0.500000 0.150000
vt 0.389515 0.045765
vt 0.343750 0.156250
vt 0.389515 0.266735
vt 0.500000 0.312500
vt 0.610485 0.266735
vt 0.656250 0.156250
vt 0.610485 0.954235
vt 0.500000 1.000000
vt 0.500000 0.837500
vt 0.389515 0.954235
vt 0.343750 0.843750
vt 0.389515 0.733265
vt 0.500000 0.687500
vt 0.610485 0.733265
vt 0.656250 0.843750
vt 0.500000 0.000000
vt 0.610485 0.045765
vt 0.389515 0.045765
vt 0.343750 0.156250
vt 0.389515 0.266735
vt 0.500000 0.312500
vt 0.610485 0.266735
vt 0.656250 0.156250
vn 0.907424 -0.143075 -0.395110
vn 0.161474 -0.103395 -0.981446
vn 0.146212 0.507479 -0.849168
vn 0.830331 0.397651 -0.390416
vn -0.716948 -0.125958 -0.685653
vn -0.618286 0.445132 -0.647750
vn -0.969147 -0.184385 -0.163575
vn -0.913900 0.375707 -0.153727
vn -0.903085 -0.219687 0.369020
vn -0.819874 0.457934 0.343661
vn -0.148160 -0.264187 0.953024
vn -0.134399 0.488113 0.862370
vn 0.741016 -0.211018 0.637469
vn 0.679947 0.414040 0.605181
vn 0.970862 -0.177740 0.160732
vn 0.933478 0.324119 0.153514
vn 0.052994 0.915948 -0.397783
vn 0.496471 0.846648 -0.191584
vn -0.355157 0.891093 -0.282520
vn -0.471660 0.880815 -0.041266
vn -0.339961 0.932658 0.120727
vn -0.094756 0.945563 0.311338
vn 0.309841 0.903666 0.295611
vn 0.511082 0.854059 0.096841
vn 0.049840 -0.935143 -0.350746
vn 0.369025 -0.920096 -0.131314
vn -0.000000 -1.000000 -0.000000
vn -0.307814 -0.918910 -0.246689
vn -0.411930 -0.908660 -0.068196
vn -0.366085 -0.921792 0.127602
vn -0.056127 -0.939109 0.339004
vn 0.305412 -0.921801 0.238762
vn 0.411929 -0.908660 0.068198
vn -0.117475 0.991975 0.046751
vn -0.689404 -0.181673 0.701225
vn 0.179751 -0.183775 0.966393
vn 0.179513 0.355855 0.917138
vn -0.659982 0.304316 0.686888
vn 0.944844 -0.131850 0.299808
vn 0.902255 0.311688 0.297971
vn 0.972547 -0.076117 -0.219908
vn 0.939893 0.269198 -0.210079
vn 0.730524 -0.159193 -0.664073
vn 0.675933 0.391591 -0.624317
vn -0.223264 -0.238764 -0.945064
vn -0.205902 0.447053 -0.870487
vn -0.921058 -0.204431 -0.331450
vn -0.862112 0.389706 -0.323870
vn -0.954752 -0.186386 0.231752
vn -0.924223 0.306920 0.227182
vn 0.099638 0.907547 0.407960
vn -0.372915 0.869006 0.325214
vn 0.472982 0.878126 0.071990
vn 0.501820 0.851885 -0.149898
vn 0.289093 0.924766 -0.247454
vn -0.029827 0.945560 -0.324077
vn -0.375724 0.912087 -0.164098
vn -0.476164 0.873577 0.100652
vn 0.153407 -0.938092 0.310562
vn -0.226247 -0.953674 0.198288
vn 0.058407 -0.995277 -0.077536
vn 0.417056 -0.908089 0.037943
vn 0.386045 -0.916278 -0.106787
vn 0.291321 -0.924719 -0.245003
vn -0.072100 -0.945442 -0.317712
vn -0.343007 -0.927783 -0.146851
vn -0.343336 -0.939211 0.001913
vn 0.089212 0.992331 -0.085563
vn 0.772074 -0.313293 -0.552946
vn -0.000001 -0.349966 -0.936763
vn 0.000963 0.579850 -0.814723
vn 0.684956 0.526258 -0.503872
vn -0.767921 -0.317536 -0.556298
vn -0.665966 0.557899 -0.495215
vn -0.956403 -0.292028 -0.003575
vn -0.832745 0.553651 -0.002431
vn -0.767203 -0.328688 0.550785
vn -0.631274 0.626822 0.456713
vn 0.007869 -0.362722 0.931864
vn 0.005161 0.641627 0.766999
vn 0.773889 -0.316473 0.548582
vn 0.661917 0.573885 0.482206
vn 0.959464 -0.281831 -0.000000
vn 0.872564 0.488498 -0.001060
vn -0.005508 0.954391 -0.298508
vn 0.298395 0.936897 -0.182169
vn -0.272788 0.952955 -0.132148
vn -0.305602 0.951764 0.027432
vn -0.195872 0.972214 0.128194
vn -0.028454 0.973860 0.225362
vn 0.222627 0.957901 0.181282
vn 0.351965 0.935965 0.009452
vn -0.000001 -0.971284 -0.237924
vn 0.218787 -0.965680 -0.139981
vn 0.000000 -1.000000 0.000000
vn -0.218787 -0.965680 -0.139982
vn -0.274659 -0.961542 0.000000
vn -0.218787 -0.965680 0.139981
vn 0.000001 -0.971284 0.237922
vn 0.218785 -0.965680 0.139980
vn 0.274660 -0.961542 -0.000000
vn -0.061947 0.997072 0.044835
vn -0.788010 -0.119602 0.603933
vn 0.029463 -0.148403 0.988488
vn 0.048257 0.302360 0.951971
vn -0.767450 0.238962 0.594911
vn 0.842007 -0.130179 0.523524
vn 0.821558 0.243168 0.515666
vn 0.992039 -0.111856 -0.057854
vn 0.971001 0.233845 -0.049726
vn 0.787084 -0.125829 -0.603876
vn 0.759402 0.256641 -0.597866
vn -0.059380 -0.148996 -0.987053
vn -0.052322 0.277997 -0.959156
vn -0.848674 -0.120859 -0.514922
vn -0.824282 0.237387 -0.514010
vn -0.993233 -0.104043 0.051600
vn -0.977753 0.203781 0.049732
vn 0.065712 0.811543 0.580586
vn -0.536496 0.736260 0.412424
vn 0.565934 0.767947 0.299960
vn 0.720882 0.692644 -0.023943
vn 0.522048 0.779055 -0.347188
vn -0.007916 0.786215 -0.617902
vn -0.583115 0.726076 -0.364405
vn -0.669127 0.741499 0.049479
vn 0.028802 -0.831615 0.554605
vn -0.480223 -0.803001 0.352952
vn 0.000000 -1.000000 -0.000001
vn 0.514185 -0.803016 0.301297
vn 0.627641 -0.777820 -0.032601
vn 0.480223 -0.803001 -0.352951
vn -0.028804 -0.831608 -0.554616
vn -0.514190 -0.803010 -0.301304
vn -0.627618 -0.777839 0.032601
vn 0.138170 0.990260 0.017179
vn -0.949759 -0.235304 0.206373
vn -0.295194 -0.362808 0.883873
vn -0.274828 0.337556 0.900292
vn -0.898707 0.339547 0.277550
vn 0.633100 -0.299705 0.713695
vn 0.583214 0.310493 0.750637
vn 0.935001 -0.219373 0.278654
vn 0.881793 0.338795 0.328114
vn 0.947185 -0.190127 -0.258251
vn 0.861191 0.481036 -0.164176
vn 0.285346 -0.151869 -0.946316
vn 0.258526 0.584456 -0.769140
vn -0.640311 -0.120959 -0.758532
vn -0.584598 0.494632 -0.643105
vn -0.937123 -0.140428 -0.319500
vn -0.901187 0.356250 -0.246876
vn -0.121613 0.852842 0.507809
vn -0.504792 0.843356 0.184217
vn 0.345946 0.850473 0.396254
vn 0.460626 0.861349 0.214246
vn 0.353924 0.934317 0.042312
vn 0.139078 0.974002 -0.178822
vn -0.263519 0.937595 -0.226878
vn -0.491554 0.868292 -0.066662
vn -0.104878 -0.971551 0.212343
vn -0.380740 -0.923900 -0.038030
vn 0.000000 -0.992796 -0.119817
vn 0.267410 -0.948785 0.168225
vn 0.397627 -0.917378 0.017651
vn 0.380753 -0.906414 -0.182868
vn 0.104887 -0.893131 -0.437398
vn -0.267415 -0.881512 -0.389135
vn -0.397629 -0.886834 -0.235409
vn 0.120325 0.988575 0.090779
s 1
g pCylinder20
usemtl initialShadingGroup
f 1/9/1 2/10/2 10/19/3 9/18/4
f 2/10/2 3/11/5 11/20/6 10/19/3
f 3/11/5 4/12/7 12/21/8 11/20/6
f 4/12/7 5/13/9 13/22/10 12/21/8
f 5/13/9 6/14/11 14/23/12 13/22/10
f 6/14/11 7/15/13 15/24/14 14/23/12
f 7/15/13 8/16/15 16/25/16 15/24/14
f 8/16/15 1/17/1 9/26/4 16/25/16
f 9/18/4 10/19/3 18/28/17 17/27/18
f 10/19/3 11/20/6 19/29/19 18/28/17
f 11/20/6 12/21/8 20/30/20 19/29/19
f 12/21/8 13/22/10 21/31/21 20/30/20
f 13/22/10 14/23/12 22/32/22 21/31/21
f 14/23/12 15/24/14 23/33/23 22/32/22
f 15/24/14 16/25/16 24/34/24 23/33/23
f 16/25/16 9/26/4 17/35/18 24/34/24
f 27/46/25 26/47/26 28/44/27
f 29/48/28 27/46/25 28/44/27
f 30/49/29 29/48/28 28/44/27
f 31/50/30 30/49/29 28/44/27
f 32/51/31 31/50/30 28/44/27
f 33/52/32 32/51/31 28/44/27
f 34/53/33 33/52/32 28/44/27
f 26/47/26 34/53/33 28/44/27
f 17/42/18 18/41/17 25/45/34
f 18/41/17 19/40/19 25/45/34
f 19/40/19 20/39/20 25/45/34
f 20/39/20 21/38/21 25/45/34
f 21/38/21 22/37/22 25/45/34
f 22/37/22 23/36/23 25/45/34
f 23/36/23 24/43/24 25/45/34
f 24/43/24 17/42/18 25/45/34
f 2/2/2 1/1/1 26/47/26 27/46/25
f 3/3/5 2/2/2 27/46/25 29/48/28
f 4/4/7 3/3/5 29/48/28 30/49/29
f 5/5/9 4/4/7 30/49/29 31/50/30
f 6/6/11 5/5/9 31/50/30 32/51/31
f 7/7/13 6/6/11 32/51/31 33/52/32
f 8/8/15 7/7/13 33/52/32 34/53/33
f 1/1/1 8/8/15 34/53/33 26/47/26
s 2
f 35/54/35 36/55/36 44/56/37 43/57/38
f 36/55/36 37/58/39 45/59/40 44/56/37
f 37/58/39 38/60/41 46/61/42 45/59/40
f 38/60/41 39/62/43 47/63/44 46/61/42
f 39/62/43 40/64/45 48/65/46 47/63/44
f 40/64/45 41/66/47 49/67/48 48/65/46
f 41/66/47 42/68/49 50/69/50 49/67/48
f 42/68/49 35/70/35 43/71/38 50/69/50
f 43/57/38 44/56/37 52/72/51 51/73/52
f 44/56/37 45/59/40 53/74/53 52/72/51
f 45/59/40 46/61/42 54/75/54 53/74/53
f 46/61/42 47/63/44 55/76/55 54/75/54
f 47/63/44 48/65/46 56/77/56 55/76/55
f 48/65/46 49/67/48 57/78/57 56/77/56
f 49/67/48 50/69/50 58/79/58 57/78/57
f 50/69/50 43/71/38 51/80/52 58/79/58
f 61/81/59 60/82/60 62/83/61
f 63/84/62 61/81/59 62/83/61
f 64/85/63 63/84/62 62/83/61
f 65/86/64 64/85/63 62/83/61
f 66/87/65 65/86/64 62/83/61
f 67/88/66 66/87/65 62/83/61
f 68/89/67 67/88/66 62/83/61
f 60/82/60 68/89/67 62/83/61
f 51/90/52 52/91/51 59/92/68
f 52/91/51 53/93/53 59/92/68
f 53/93/53 54/94/54 59/92/68
f 54/94/54 55/95/55 59/92/68
f 55/95/55 56/96/56 59/92/68
f 56/96/56 57/97/57 59/92/68
f 57/97/57 58/98/58 59/92/68
f 58/98/58 51/90/52 59/92/68
f 36/99/36 35/100/35 60/82/60 61/81/59
f 37/101/39 36/99/36 61/81/59 63/84/62
f 38/102/41 37/101/39 63/84/62 64/85/63
f 39/103/43 38/102/41 64/85/63 65/86/64
f 40/104/45 39/103/43 65/86/64 66/87/65
f 41/105/47 40/104/45 66/87/65 67/88/66
f 42/106/49 41/105/47 67/88/66 68/89/67
f 35/100/35 42/106/49 68/89/67 60/82/60
s 3
f 69/107/69 70/108/70 78/109/71 77/110/72
f 70/108/70 71/111/73 79/112/74 78/109/71
f 71/111/73 72/113/75 80/114/76 79/112/74
f 72/113/75 73/115/77 81/116/78 80/114/76
f 73/115/77 74/117/79 82/118/80 81/116/78
f 74/117/79 75/119/81 83/120/82 82/118/80
f 75/119/81 76/121/83 84/122/84 83/120/82
f 76/121/83 69/123/69 77/124/72 84/122/84
f 77/110/72 78/109/71 86/125/85 85/126/86
f 78/109/71 79/112/74 87/127/87 86/125/85
f 79/112/74 80/114/76 88/128/88 87/127/87
f 80/114/76 81/116/78 89/129/89 88/128/88
f 81/116/78 82/118/80 90/130/90 89/129/89
f 82/118/80 83/120/82 91/131/91 90/130/90
f 83/120/82 84/122/84 92/132/92 91/131/91
f 84/122/84 77/124/72 85/133/86 92/132/92
f 95/134/93 94/135/94 96/136/95
f 97/137/96 95/134/93 96/136/95
f 98/138/97 97/137/96 96/136/95
f 99/139/98 98/138/97 96/136/95
f 100/140/99 99/139/98 96/136/95
f 101/141/100 100/140/99 96/136/95
f 102/142/101 101/141/100 96/136/95
f 94/135/94 102/142/101 96/136/95
f 85/143/86 86/144/85 93/145/102
f 86/144/85 87/146/87 93/145/102
f 87/146/87 88/147/88 93/145/102
f 88/147/88 89/148/89 93/145/102
f 89/148/89 90/149/90 93/145/102
f 90/149/90 91/150/91 93/145/102
f 91/150/91 92/151/92 93/145/102
f 92/151/92 85/143/86 93/145/102
f 70/152/70 69/153/69 94/135/94 95/134/93
f 71/154/73 70/152/70 95/134/93 97/137/96
f 72/155/75 71/154/73 97/137/96 98/138/97
f 73/156/77 72/155/75 98/138/97 99/139/98
f 74/157/79 73/156/77 99/139/98 100/140/99
f 75/158/81 74/157/79 100/140/99 101/141/100
f 76/159/83 75/158/81 101/141/100 102/142/101
f 69/153/69 76/159/83 102/142/101 94/135/94
s 4
f 103/160/103 104/161/104 112/162/105 111/163/106
f 104/161/104 105/164/107 113/165/108 112/162/105
f 105/164/107 106/166/109 114/167/110 113/165/108
f 106/166/109 107/168/111 115/169/112 114/167/110
f 107/168/111 108/170/113 116/171/114 115/169/112
f 108/170/113 109/172/115 117/173/116 116/171/114
f 109/172/115 110/174/117 118/175/118 117/173/116
f 110/174/117 103/176/103 111/177/106 118/175/118
f 111/163/106 112/162/105 120/178/119 119/179/120
f 112/162/105 113/165/108 121/180/121 120/178/119
f 113/165/108 114/167/110 122/181/122 121/180/121
f 114/167/110 115/169/112 123/182/123 122/181/122
f 115/169/112 116/171/114 124/183/124 123/182/123
f 116/171/114 117/173/116 125/184/125 124/183/124
f 117/173/116 118/175/118 126/185/126 125/184/125
f 118/175/118 111/177/106 119/186/120 126/185/126
f 129/187/127 128/188/128 130/189/129
f 131/190/130 129/187/127 130/189/129
f 132/191/131 131/190/130 130/189/129
f 133/192/132 132/191/131 130/189/129
f 134/193/133 133/192/132 130/189/129
f 135/194/134 134/193/133 130/189/129
f 136/195/135 135/194/134 130/189/129
f 128/188/128 136/195/135 130/189/129
f 119/196/120 120/197/119 127/198/136
f 120/197/119 121/199/121 127/198/136
f 121/199/121 122/200/122 127/198/136
f 122/200/122 123/201/123 127/198/136
f 123/201/123 124/202/124 127/198/136
f 124/202/124 125/203/125 127/198/136
f 125/203/125 126/204/126 127/198/136
f 126/204/126 119/196/120 127/198/136
f 104/205/104 103/206/103 128/188/128 129/187/127
f 105/207/107 104/205/104 129/187/127 131/190/130
f 106/208/109 105/207/107 131/190/130 132/191/131
f 107/209/111 106/208/109 132/191/131 133/192/132
f 108/210/113 107/209/111 133/192/132 134/193/133
f 109/211/115 108/210/113 134/193/133 135/194/134
f 110/212/117 109/211/115 135/194/134 136/195/135
f 103/206/103 110/212/117 136/195/135 128/188/128
s 5
f 137/213/137 138/214/138 146/215/139 145/216/140
f 138/214/138 139/217/141 147/218/142 146/215/139
f 139/217/141 140/219/143 148/220/144 147/218/142
f 140/219/143 141/221/145 149/222/146 148/220/144
f 141/221/145 142/223/147 150/224/148 149/222/146
f 142/223/147 143/225/149 151/226/150 150/224/148
f 143/225/149 144/227/151 152/228/152 151/226/150
f 144/227/151 137/229/137 145/230/140 152/228/152
f 145/216/140 146/215/139 154/231/153 153/232/154
f 146/215/139 147/218/142 155/233/155 154/231/153
f 147/218/142 148/220/144 156/234/156 155/233/155
f 148/220/144 149/222/146 157/235/157 156/234/156
f 149/222/146 150/224/148 158/236/158 157/235/157
f 150/224/148 151/226/150 159/237/159 158/236/158
f 151/226/150 152/228/152 160/238/160 159/237/159
f 152/228/152 145/230/140 153/239/154 160/238/160
f 163/240/161 162/241/162 164/242/163
f 165/243/164 163/240/161 164/242/163
f 166/244/165 165/243/164 164/242/163
f 167/245/166 166/244/165 164/242/163
f 168/246/167 167/245/166 164/242/163
f 169/247/168 168/246/167 164/242/163
f 170/248/169 169/247/168 164/242/163
f 162/241/162 170/248/169 164/242/163
f 153/249/154 154/250/153 161/251/170
f 154/250/153 155/252/155 161/251/170
f 155/252/155 156/253/156 161/251/170
f 156/253/156 157/254/157 161/251/170
f 157/254/157 158/255/158 161/251/170
f 158/255/158 159/256/159 161/251/170
f 159/256/159 160/257/160 161/251/170
f 160/257/160 153/249/154 161/251/170
f 138/258/138 137/259/137 162/241/162 163/240/161
f 139/260/141 138/258/138 163/240/161 165/243/164
f 140/261/143 139/260/141 165/243/164 166/244/165
f 141/262/145 140/261/143 166/244/165 167/245/166
f 142/263/147 141/262/145 167/245/166 168/246/167
f 143/264/149 142/263/147 168/246/167 169/247/168
f 144/265/151 143/264/149 169/247/168 170/248/169
f 137/259/137 144/265/151 170/248/169 162/241/162
