# This file uses centimeters as units for non-parametric coordinates.

mtllib WaterLantern2_low.mtl
g default
v -6.774210 -10.228203 6.774193
v 6.774191 -10.228203 6.774193
v -6.774210 -9.272733 6.774193
v 6.774191 -9.272733 6.774193
v -6.774210 -9.272733 -6.774193
v 6.774191 -9.272733 -6.774193
v -6.774210 -10.228203 -6.774193
v 6.774191 -10.228203 -6.774193
v -3.435343 -8.184190 3.435318
v 3.435293 -8.184190 3.435318
v -3.435343 9.742671 3.435318
v 3.435293 9.742671 3.435318
v -3.435343 9.742671 -3.435318
v 3.435293 9.742671 -3.435318
v -3.435343 -8.184190 -3.435318
v 3.435293 -8.184190 -3.435318
v 2.913381 -9.569402 3.565384
v 3.576742 -9.569402 3.565384
v 2.913381 10.228202 3.565384
v 3.576742 10.228202 3.565384
v 2.913381 10.228202 2.902019
v 3.576742 10.228202 2.902019
v 2.913381 -9.569402 2.902019
v 3.576742 -9.569402 2.902019
v 2.913381 -9.569402 -2.929933
v 3.576742 -9.569402 -2.929933
v 2.913381 10.228202 -2.929933
v 3.576742 10.228202 -2.929933
v 2.913381 10.228202 -3.593297
v 3.576742 10.228202 -3.593297
v 2.913381 -9.569402 -3.593297
v 3.576742 -9.569402 -3.593297
v -3.563547 -9.569402 -2.929933
v -2.900187 -9.569402 -2.929933
v -3.563547 10.228202 -2.929933
v -2.900187 10.228202 -2.929933
v -3.563547 10.228202 -3.593297
v -2.900187 10.228202 -3.593297
v -3.563547 -9.569402 -3.593297
v -2.900187 -9.569402 -3.593297
v -3.563547 -9.569402 3.565384
v -2.900187 -9.569402 3.565384
v -3.563547 10.228202 3.565384
v -2.900187 10.228202 3.565384
v -3.563547 10.228202 2.902019
v -2.900187 10.228202 2.902019
v -3.563547 -9.569402 2.902019
v -2.900187 -9.569402 2.902019
v 2.913381 9.608846 3.565384
v 3.576742 9.608846 3.565384
v 2.913381 9.608848 2.902019
v 3.576742 9.608848 2.902019
v 2.913381 9.608846 -2.929933
v 3.576742 9.608846 -2.929933
v 2.913381 9.608848 -3.593297
v 3.576742 9.608848 -3.593297
v -3.563547 9.608846 -2.929933
v -2.900187 9.608846 -2.929933
v -3.563547 9.608848 -3.593297
v -2.900187 9.608848 -3.593297
v -3.563547 9.608846 3.565384
v -2.900187 9.608846 3.565384
v -3.563547 9.608848 2.902019
v -2.900187 9.608848 2.902019
vt 0.375000 0.000000
vt 0.625000 0.000000
vt 0.375000 0.250000
vt 0.625000 0.250000
vt 0.375000 0.500000
vt 0.625000 0.500000
vt 0.375000 0.750000
vt 0.625000 0.750000
vt 0.375000 1.000000
vt 0.625000 1.000000
vt 0.875000 0.000000
vt 0.875000 0.250000
vt 0.125000 0.000000
vt 0.125000 0.250000
vt 0.375000 0.000000
vt 0.625000 0.000000
vt 0.625000 0.250000
vt 0.375000 0.250000
vt 0.250000 0.375000
vt 0.750000 0.375000
vt 0.625000 0.750000
vt 0.375000 0.750000
vt 0.875000 0.000000
vt 0.125000 0.000000
vt 0.375000 0.000000
vt 0.625000 0.000000
vt 0.625000 0.242179
vt 0.375000 0.242179
vt 0.375000 0.250000
vt 0.625000 0.250000
vt 0.625000 0.500000
vt 0.375000 0.500000
vt 0.875000 0.000000
vt 0.875000 0.242179
vt 0.125000 0.000000
vt 0.125000 0.242179
vt 0.375000 0.000000
vt 0.625000 0.000000
vt 0.625000 0.242179
vt 0.375000 0.242179
vt 0.375000 0.250000
vt 0.625000 0.250000
vt 0.625000 0.500000
vt 0.375000 0.500000
vt 0.625000 0.507821
vt 0.375000 0.507821
vt 0.875000 0.000000
vt 0.875000 0.242179
vt 0.125000 0.000000
vt 0.125000 0.242179
vt 0.375000 0.000000
vt 0.625000 0.000000
vt 0.625000 0.242179
vt 0.375000 0.242179
vt 0.375000 0.250000
vt 0.625000 0.250000
vt 0.625000 0.500000
vt 0.375000 0.500000
vt 0.625000 0.507821
vt 0.375000 0.507821
vt 0.875000 0.000000
vt 0.875000 0.242179
vt 0.125000 0.000000
vt 0.125000 0.242179
vt 0.375000 0.000000
vt 0.625000 0.000000
vt 0.625000 0.242179
vt 0.375000 0.242179
vt 0.375000 0.250000
vt 0.625000 0.250000
vt 0.625000 0.500000
vt 0.375000 0.500000
vt 0.875000 0.000000
vt 0.875000 0.242179
vt 0.125000 0.000000
vt 0.125000 0.242179
vt 0.375000 0.507821
vt 0.625000 0.507821
vt 0.625000 0.750000
vt 0.375000 0.750000
vt 0.875000 0.250000
vt 0.625000 0.750000
vt 0.375000 0.750000
vt 0.875000 0.250000
vt 0.625000 0.750000
vt 0.375000 0.750000
vt 0.125000 0.250000
vt 0.375000 0.507821
vt 0.625000 0.507821
vt 0.625000 0.750000
vt 0.375000 0.750000
vt 0.125000 0.250000
vt 0.125000 0.250000
vn 0.000000 0.000000 1.000000
vn 0.000000 0.000000 1.000000
vn 0.000000 0.000000 1.000000
vn 0.000000 0.000000 1.000000
vn 0.000000 1.000000 0.000000
vn 0.000000 1.000000 0.000000
vn 0.000000 1.000000 0.000000
vn 0.000000 1.000000 0.000000
vn 0.000000 0.000000 -1.000000
vn 0.000000 0.000000 -1.000000
vn 0.000000 0.000000 -1.000000
vn 0.000000 0.000000 -1.000000
vn 0.000000 -1.000000 0.000000
vn 0.000000 -1.000000 0.000000
vn 0.000000 -1.000000 0.000000
vn 0.000000 -1.000000 0.000000
vn 1.000000 0.000000 0.000000
vn 1.000000 0.000000 0.000000
vn 1.000000 0.000000 0.000000
vn 1.000000 0.000000 0.000000
vn -1.000000 0.000000 0.000000
vn -1.000000 0.000000 0.000000
vn -1.000000 0.000000 0.000000
vn -1.000000 0.000000 0.000000
vn 0.000000 0.000000 1.000000
vn 0.000000 0.000000 1.000000
vn 0.000000 0.000000 1.000000
vn 0.000000 0.000000 1.000000
vn 0.000000 0.000000 -1.000000
vn 0.000000 0.000000 -1.000000
vn 0.000000 0.000000 -1.000000
vn 0.000000 0.000000 -1.000000
vn 1.000000 0.000000 0.000000
vn 1.000000 0.000000 0.000000
vn 1.000000 0.000000 0.000000
vn 1.000000 0.000000 0.000000
vn -1.000000 0.000000 0.000000
vn -1.000000 0.000000 0.000000
vn -1.000000 0.000000 0.000000
vn -1.000000 0.000000 0.000000
vn 0.000000 1.000000 0.000000
vn 0.000000 1.000000 0.000000
vn 0.000000 1.000000 0.000000
vn 0.000000 1.000000 0.000000
vn 0.000000 0.000000 1.000000
vn 0.000000 0.000000 1.000000
vn 0.000000 0.000000 1.000000
vn 0.000000 0.000000 1.000000
vn 0.000000 1.000000 0.000000
vn 0.000000 1.000000 0.000000
vn 0.000000 1.000000 0.000000
vn 0.000000 1.000000 0.000000
vn 1.000000 0.000000 0.000000
vn 1.000000 0.000000 0.000000
vn 1.000000 0.000000 0.000000
vn 1.000000 0.000000 0.000000
vn -1.000000 -0.000000 0.000000
vn -1.000000 -0.000000 0.000000
vn -1.000000 -0.000000 0.000000
vn -1.000000 -0.000000 0.000000
vn 0.000000 0.000000 1.000000
vn 0.000000 0.000000 1.000000
vn 0.000000 0.000000 1.000000
vn 0.000000 0.000000 1.000000
vn 0.000000 1.000000 0.000000
vn 0.000000 1.000000 0.000000
vn 0.000000 1.000000 0.000000
vn 0.000000 1.000000 0.000000
vn 0.000000 0.000000 -1.000000
vn 0.000000 0.000000 -1.000000
vn 0.000000 0.000000 -1.000000
vn 0.000000 0.000000 -1.000000
vn 1.000000 0.000000 0.000000
vn 1.000000 0.000000 0.000000
vn 1.000000 0.000000 0.000000
vn 1.000000 0.000000 0.000000
vn -1.000000 0.000000 0.000000
vn -1.000000 0.000000 0.000000
vn -1.000000 0.000000 0.000000
vn -1.000000 0.000000 0.000000
vn 0.000000 0.000000 1.000000
vn 0.000000 0.000000 1.000000
vn 0.000000 0.000000 1.000000
vn 0.000000 0.000000 1.000000
vn 0.000000 1.000000 0.000000
vn 0.000000 1.000000 0.000000
vn 0.000000 1.000000 0.000000
vn 0.000000 1.000000 0.000000
vn 0.000000 0.000000 -1.000000
vn 0.000000 0.000000 -1.000000
vn 0.000000 0.000000 -1.000000
vn 0.000000 0.000000 -1.000000
vn 1.000000 0.000000 0.000000
vn 1.000000 0.000000 0.000000
vn 1.000000 0.000000 0.000000
vn 1.000000 0.000000 0.000000
vn -1.000000 0.000000 0.000000
vn -1.000000 0.000000 0.000000
vn -1.000000 0.000000 0.000000
vn -1.000000 -0.000000 0.000000
vn 0.000000 0.000000 1.000000
vn 0.000000 0.000000 1.000000
vn 0.000000 0.000000 1.000000
vn 0.000000 0.000000 1.000000
vn 0.000000 1.000000 0.000000
vn 0.000000 1.000000 0.000000
vn 0.000000 1.000000 0.000000
vn 0.000000 1.000000 0.000000
vn 1.000000 0.000000 0.000000
vn 1.000000 0.000000 0.000000
vn 1.000000 0.000000 0.000000
vn 1.000000 0.000000 0.000000
vn -1.000000 -0.000000 0.000000
vn -1.000000 -0.000000 0.000000
vn -1.000000 -0.000000 0.000000
vn -1.000000 0.000000 0.000000
vn 0.000000 0.000000 1.000000
vn 0.000000 0.000000 1.000000
vn 0.000000 0.000000 -1.000000
vn 0.000000 0.000000 -1.000000
vn 0.000000 0.000000 -1.000000
vn 0.000000 0.000000 -1.000000
vn 1.000000 0.000000 0.000000
vn 1.000000 0.000000 0.000000
vn 0.000000 -0.000000 -1.000000
vn 0.000000 -0.000000 -1.000000
vn 1.000000 0.000000 0.000000
vn 1.000000 0.000000 0.000000
vn 0.000000 -0.000000 -1.000000
vn 0.000000 -0.000000 -1.000000
vn -1.000000 -0.000012 0.000000
vn -1.000000 -0.000012 0.000000
vn 0.000000 0.000000 1.000000
vn 0.000000 0.000000 1.000000
vn 0.000000 0.000000 -1.000000
vn 0.000000 0.000000 -1.000000
vn 0.000000 0.000000 -1.000000
vn 0.000000 0.000000 -1.000000
vn -1.000000 0.000012 0.000000
vn -1.000000 0.000012 0.000000
vn 0.000000 0.000000 -1.000000
vn 0.000000 0.000000 -1.000000
vn 0.000000 0.000000 -1.000000
vn 0.000000 0.000000 -1.000000
vn 0.000000 -1.000000 -0.000002
vn 0.000000 -1.000000 -0.000002
vn 0.000000 -1.000000 -0.000002
vn 0.000000 -1.000000 -0.000002
vn 0.000000 0.000000 1.000000
vn 0.000000 0.000000 1.000000
vn 0.000000 0.000000 1.000000
vn 0.000000 0.000000 1.000000
vn 0.000000 1.000000 0.000000
vn 0.000000 1.000000 0.000000
vn 0.000000 1.000000 0.000000
vn 0.000000 1.000000 0.000000
vn 1.000000 0.000000 0.000000
vn 1.000000 0.000000 0.000000
vn 1.000000 0.000000 0.000000
vn 1.000000 0.000000 0.000000
vn 0.000000 -1.000000 0.000000
vn 0.000000 -1.000000 0.000000
vn 0.000000 -1.000000 0.000000
vn 0.000000 -1.000000 0.000000
vn -1.000000 0.000000 0.000000
vn -1.000000 0.000000 0.000000
vn -1.000000 0.000000 0.000000
vn -1.000000 0.000000 0.000000
vn 0.000000 1.000000 0.000000
vn 0.000000 1.000000 0.000000
vn 0.000000 1.000000 0.000000
vn 0.000000 1.000000 0.000000
vn 0.000000 -0.000000 -1.000000
vn 0.000000 -0.000000 -1.000000
vn 0.000000 -0.000000 -1.000000
vn 0.000000 -0.000000 -1.000000
vn 0.000000 -1.000000 -0.000002
vn 0.000000 -1.000000 -0.000002
vn 0.000000 -1.000000 -0.000002
vn 0.000000 -1.000000 -0.000002
vn 0.000000 0.000000 1.000000
vn 0.000000 0.000000 1.000000
vn 0.000000 0.000000 1.000000
vn 0.000000 0.000000 1.000000
vn 0.000000 1.000000 0.000000
vn 0.000000 1.000000 0.000000
vn 0.000000 1.000000 0.000000
vn 0.000000 1.000000 0.000000
vn 0.000000 1.000000 0.000000
vn 0.000000 1.000000 0.000000
vn 0.000000 1.000000 0.000000
vn 0.000000 1.000000 0.000000
vn -1.000000 0.000000 0.000000
vn -1.000000 0.000000 0.000000
vn -1.000000 0.000000 0.000000
vn -1.000000 0.000000 0.000000
vn 0.000000 -1.000000 0.000000
vn 0.000000 -1.000000 0.000000
vn 0.000000 -1.000000 0.000000
vn 0.000000 -1.000000 0.000000
vn 1.000000 0.000000 0.000000
vn 1.000000 0.000000 0.000000
vn 1.000000 0.000000 0.000000
vn 1.000000 0.000000 0.000000
s off
g pCube21
usemtl initialShadingGroup
f 1/1/1 2/2/2 4/4/3 3/3/4
f 3/3/5 4/4/6 6/6/7 5/5/8
f 5/5/9 6/6/10 8/8/11 7/7/12
f 7/7/13 8/8/14 2/10/15 1/9/16
f 2/2/17 8/11/18 6/12/19 4/4/20
f 7/13/21 1/1/22 3/3/23 5/14/24
f 9/15/25 10/16/26 12/17/27 11/18/28
f 13/19/29 14/20/30 16/21/31 15/22/32
f 10/16/33 16/23/34 14/20/35 12/17/36
f 15/24/37 9/15/38 11/18/39 13/19/40
f 13/19/41 11/18/42 12/17/43 14/20/44
s 1
f 17/25/45 18/26/46 50/27/47 49/28/48
s off
f 19/29/49 20/30/50 22/31/51 21/32/52
s 2
f 18/26/53 24/33/54 52/34/55 50/27/56
s off
f 23/35/57 17/25/58 49/28/59 51/36/60
f 25/37/61 26/38/62 54/39/63 53/40/64
f 27/41/65 28/42/66 30/43/67 29/44/68
s 3
f 29/44/69 30/43/70 56/45/71 55/46/72
s 4
f 26/38/73 32/47/74 56/48/75 54/39/76
s off
f 31/49/77 25/37/78 53/40/79 55/50/80
f 33/51/81 34/52/82 58/53/83 57/54/84
f 35/55/85 36/56/86 38/57/87 37/58/88
s 5
f 37/58/89 38/57/90 60/59/91 59/60/92
s off
f 34/52/93 40/61/94 60/62/95 58/53/96
s 6
f 39/63/97 33/51/98 57/54/99 59/64/100
s 7
f 41/65/101 42/66/102 62/67/103 61/68/104
s off
f 43/69/105 44/70/106 46/71/107 45/72/108
f 42/66/109 48/73/110 64/74/111 62/67/112
s 8
f 47/75/113 41/65/114 61/68/115 63/76/116
s 1
f 49/28/48 50/27/47 20/30/117 19/29/118
s off
f 51/77/119 52/78/120 24/79/121 23/80/122
s 2
f 50/27/56 52/34/55 22/81/123 20/30/124
s 3
f 55/46/72 56/45/71 32/82/125 31/83/126
s 4
f 54/39/76 56/48/75 30/84/127 28/42/128
s 5
f 59/60/92 60/59/91 40/85/129 39/86/130
s 6
f 59/64/100 57/54/99 35/55/131 37/87/132
s 7
f 61/68/104 62/67/103 44/70/133 43/69/134
s off
f 63/88/135 64/89/136 48/90/137 47/91/138
s 8
f 63/76/116 61/68/115 43/69/139 45/92/140
s off
f 29/44/141 55/46/142 60/59/143 38/57/144
f 55/50/145 53/40/146 58/53/147 60/62/148
f 53/40/149 27/41/150 36/56/151 58/53/152
f 27/41/153 29/44/154 38/57/155 36/56/156
f 22/81/157 52/34/158 54/39/159 28/42/160
f 52/78/161 51/77/162 53/40/163 54/39/164
f 51/36/165 21/93/166 27/41/167 53/40/168
f 21/32/169 22/31/170 28/42/171 27/41/172
f 21/93/173 51/36/174 64/89/175 46/71/176
f 51/36/177 49/28/178 62/67/179 64/74/180
f 49/28/181 19/29/182 44/70/183 62/67/184
f 19/29/185 21/32/186 46/71/187 44/70/188
f 36/56/189 35/55/190 45/72/191 46/71/192
f 35/55/193 57/54/194 63/76/195 45/92/196
f 57/54/197 58/53/198 64/89/199 63/88/200
f 58/53/201 36/56/202 46/71/203 64/89/204
