# This file uses centimeters as units for non-parametric coordinates.

mtllib WaterLantern1.mtl
g default
v -3.378005 -9.298111 3.355422
v 3.377977 -9.298111 3.355422
v -3.378005 10.166652 3.355422
v 3.377977 10.166652 3.355422
v -3.378005 10.166652 -3.355422
v 3.377977 10.166652 -3.355422
v -3.378005 -9.298111 -3.355422
v 3.377977 -9.298111 -3.355422
v 2.848741 -9.287803 3.485816
v 3.497361 -9.287803 3.485816
v 2.848741 10.069713 3.485816
v 3.497361 10.069713 3.485816
v 2.848741 10.069713 2.837197
v 3.497361 10.069713 2.837197
v 2.848741 -9.287803 2.837197
v 3.497361 -9.287803 2.837197
v 2.848741 -9.287803 -2.865111
v 3.497361 -9.287803 -2.865111
v 2.848741 10.069713 -2.865111
v 3.497361 10.069713 -2.865111
v 2.848741 10.069713 -3.513730
v 3.497361 10.069713 -3.513730
v 2.848741 -9.287803 -3.513730
v 3.497361 -9.287803 -3.513730
v -3.484206 -9.287803 -2.865111
v -2.835585 -9.287803 -2.865111
v -3.484206 10.069713 -2.865111
v -2.835585 10.069713 -2.865111
v -3.484206 10.069713 -3.513730
v -2.835585 10.069713 -3.513730
v -3.484206 -9.287803 -3.513730
v -2.835585 -9.287803 -3.513730
v -3.484206 -9.287803 3.485816
v -2.835585 -9.287803 3.485816
v -3.484206 10.069713 3.485816
v -2.835585 10.069713 3.485816
v -3.484206 10.069713 2.837197
v -2.835585 10.069713 2.837197
v -3.484206 -9.287803 2.837197
v -2.835585 -9.287803 2.837197
v -6.774184 -10.166652 6.774193
v 6.774156 -10.166652 6.774193
v -6.774184 -9.211183 6.774193
v 6.774156 -9.211183 6.774193
v -6.774184 -9.211183 -6.774193
v 6.774156 -9.211183 -6.774193
v -6.774184 -10.166652 -6.774193
v 6.774156 -10.166652 -6.774193
vt 0.375000 0.000000
vt 0.625000 0.000000
vt 0.375000 0.250000
vt 0.625000 0.250000
vt 0.250000 0.375000
vt 0.750000 0.375000
vt 0.375000 0.750000
vt 0.625000 0.750000
vt 0.875000 0.000000
vt 0.125000 0.000000
vt 0.375000 0.000000
vt 0.625000 0.000000
vt 0.625000 0.250000
vt 0.375000 0.250000
vt 0.625000 0.500000
vt 0.375000 0.500000
vt 0.625000 0.750000
vt 0.375000 0.750000
vt 0.875000 0.000000
vt 0.875000 0.250000
vt 0.125000 0.000000
vt 0.125000 0.250000
vt 0.375000 0.000000
vt 0.625000 0.000000
vt 0.625000 0.250000
vt 0.375000 0.250000
vt 0.625000 0.500000
vt 0.375000 0.500000
vt 0.625000 0.750000
vt 0.375000 0.750000
vt 0.875000 0.000000
vt 0.875000 0.250000
vt 0.125000 0.000000
vt 0.125000 0.250000
vt 0.375000 0.000000
vt 0.625000 0.000000
vt 0.625000 0.250000
vt 0.375000 0.250000
vt 0.625000 0.500000
vt 0.375000 0.500000
vt 0.625000 0.750000
vt 0.375000 0.750000
vt 0.875000 0.000000
vt 0.875000 0.250000
vt 0.125000 0.000000
vt 0.125000 0.250000
vt 0.375000 0.000000
vt 0.625000 0.000000
vt 0.625000 0.250000
vt 0.375000 0.250000
vt 0.625000 0.500000
vt 0.375000 0.500000
vt 0.625000 0.750000
vt 0.375000 0.750000
vt 0.875000 0.000000
vt 0.875000 0.250000
vt 0.125000 0.000000
vt 0.125000 0.250000
vt 0.375000 0.000000
vt 0.625000 0.000000
vt 0.625000 0.250000
vt 0.375000 0.250000
vt 0.625000 0.500000
vt 0.375000 0.500000
vt 0.625000 0.750000
vt 0.375000 0.750000
vt 0.625000 1.000000
vt 0.375000 1.000000
vt 0.875000 0.000000
vt 0.875000 0.250000
vt 0.125000 0.000000
vt 0.125000 0.250000
vn 0.000000 0.000000 1.000000
vn 0.000000 0.000000 1.000000
vn 0.000000 0.000000 1.000000
vn 0.000000 0.000000 1.000000
vn 0.000000 0.000000 -1.000000
vn 0.000000 0.000000 -1.000000
vn 0.000000 0.000000 -1.000000
vn 0.000000 0.000000 -1.000000
vn 1.000000 0.000000 0.000000
vn 1.000000 0.000000 0.000000
vn 1.000000 0.000000 0.000000
vn 1.000000 0.000000 0.000000
vn -1.000000 0.000000 0.000000
vn -1.000000 0.000000 0.000000
vn -1.000000 0.000000 0.000000
vn -1.000000 0.000000 0.000000
vn 0.000000 1.000000 0.000000
vn 0.000000 1.000000 0.000000
vn 0.000000 1.000000 0.000000
vn 0.000000 1.000000 0.000000
vn 0.000000 0.000000 1.000000
vn 0.000000 0.000000 1.000000
vn 0.000000 0.000000 1.000000
vn 0.000000 0.000000 1.000000
vn 0.000000 1.000000 0.000000
vn 0.000000 1.000000 0.000000
vn 0.000000 1.000000 0.000000
vn 0.000000 1.000000 0.000000
vn 0.000000 0.000000 -1.000000
vn 0.000000 0.000000 -1.000000
vn 0.000000 0.000000 -1.000000
vn 0.000000 0.000000 -1.000000
vn 1.000000 0.000000 0.000000
vn 1.000000 0.000000 0.000000
vn 1.000000 0.000000 0.000000
vn 1.000000 0.000000 0.000000
vn -1.000000 0.000000 0.000000
vn -1.000000 0.000000 0.000000
vn -1.000000 0.000000 0.000000
vn -1.000000 0.000000 0.000000
vn 0.000000 0.000000 1.000000
vn 0.000000 0.000000 1.000000
vn 0.000000 0.000000 1.000000
vn 0.000000 0.000000 1.000000
vn 0.000000 1.000000 0.000000
vn 0.000000 1.000000 0.000000
vn 0.000000 1.000000 0.000000
vn 0.000000 1.000000 0.000000
vn 0.000000 0.000000 -1.000000
vn 0.000000 0.000000 -1.000000
vn 0.000000 0.000000 -1.000000
vn 0.000000 0.000000 -1.000000
vn 1.000000 0.000000 0.000000
vn 1.000000 0.000000 0.000000
vn 1.000000 0.000000 0.000000
vn 1.000000 0.000000 0.000000
vn -1.000000 0.000000 0.000000
vn -1.000000 0.000000 0.000000
vn -1.000000 0.000000 0.000000
vn -1.000000 0.000000 0.000000
vn 0.000000 0.000000 1.000000
vn 0.000000 0.000000 1.000000
vn 0.000000 0.000000 1.000000
vn 0.000000 0.000000 1.000000
vn 0.000000 1.000000 0.000000
vn 0.000000 1.000000 0.000000
vn 0.000000 1.000000 0.000000
vn 0.000000 1.000000 0.000000
vn 0.000000 0.000000 -1.000000
vn 0.000000 0.000000 -1.000000
vn 0.000000 0.000000 -1.000000
vn 0.000000 0.000000 -1.000000
vn 1.000000 0.000000 0.000000
vn 1.000000 0.000000 0.000000
vn 1.000000 0.000000 0.000000
vn 1.000000 0.000000 0.000000
vn -1.000000 0.000000 0.000000
vn -1.000000 0.000000 0.000000
vn -1.000000 0.000000 0.000000
vn -1.000000 0.000000 0.000000
vn 0.000000 0.000000 1.000000
vn 0.000000 0.000000 1.000000
vn 0.000000 0.000000 1.000000
vn 0.000000 0.000000 1.000000
vn 0.000000 1.000000 0.000000
vn 0.000000 1.000000 0.000000
vn 0.000000 1.000000 0.000000
vn 0.000000 1.000000 0.000000
vn 0.000000 0.000000 -1.000000
vn 0.000000 0.000000 -1.000000
vn 0.000000 0.000000 -1.000000
vn 0.000000 0.000000 -1.000000
vn 1.000000 0.000000 0.000000
vn 1.000000 0.000000 0.000000
vn 1.000000 0.000000 0.000000
vn 1.000000 0.000000 0.000000
vn -1.000000 0.000000 0.000000
vn -1.000000 0.000000 0.000000
vn -1.000000 0.000000 0.000000
vn -1.000000 0.000000 0.000000
vn 0.000000 0.000000 1.000000
vn 0.000000 0.000000 1.000000
vn 0.000000 0.000000 1.000000
vn 0.000000 0.000000 1.000000
vn 0.000000 1.000000 0.000000
vn 0.000000 1.000000 0.000000
vn 0.000000 1.000000 0.000000
vn 0.000000 1.000000 0.000000
vn 0.000000 0.000000 -1.000000
vn 0.000000 0.000000 -1.000000
vn 0.000000 0.000000 -1.000000
vn 0.000000 0.000000 -1.000000
vn 0.000000 -1.000000 0.000000
vn 0.000000 -1.000000 0.000000
vn 0.000000 -1.000000 0.000000
vn 0.000000 -1.000000 0.000000
vn 1.000000 0.000000 0.000000
vn 1.000000 0.000000 0.000000
vn 1.000000 0.000000 0.000000
vn 1.000000 0.000000 0.000000
vn -1.000000 0.000000 0.000000
vn -1.000000 0.000000 0.000000
vn -1.000000 0.000000 0.000000
vn -1.000000 0.000000 0.000000
s off
g pCube23
usemtl initialShadingGroup
f 1/1/1 2/2/2 4/4/3 3/3/4
f 5/5/5 6/6/6 8/8/7 7/7/8
f 2/2/9 8/9/10 6/6/11 4/4/12
f 7/10/13 1/1/14 3/3/15 5/5/16
f 3/3/17 4/4/18 6/6/19 5/5/20
f 9/11/21 10/12/22 12/13/23 11/14/24
f 11/14/25 12/13/26 14/15/27 13/16/28
f 13/16/29 14/15/30 16/17/31 15/18/32
f 10/12/33 16/19/34 14/20/35 12/13/36
f 15/21/37 9/11/38 11/14/39 13/22/40
f 17/23/41 18/24/42 20/25/43 19/26/44
f 19/26/45 20/25/46 22/27/47 21/28/48
f 21/28/49 22/27/50 24/29/51 23/30/52
f 18/24/53 24/31/54 22/32/55 20/25/56
f 23/33/57 17/23/58 19/26/59 21/34/60
f 25/35/61 26/36/62 28/37/63 27/38/64
f 27/38/65 28/37/66 30/39/67 29/40/68
f 29/40/69 30/39/70 32/41/71 31/42/72
f 26/36/73 32/43/74 30/44/75 28/37/76
f 31/45/77 25/35/78 27/38/79 29/46/80
f 33/47/81 34/48/82 36/49/83 35/50/84
f 35/50/85 36/49/86 38/51/87 37/52/88
f 37/52/89 38/51/90 40/53/91 39/54/92
f 34/48/93 40/55/94 38/56/95 36/49/96
f 39/57/97 33/47/98 35/50/99 37/58/100
f 41/59/101 42/60/102 44/61/103 43/62/104
f 43/62/105 44/61/106 46/63/107 45/64/108
f 45/64/109 46/63/110 48/65/111 47/66/112
f 47/66/113 48/65/114 42/67/115 41/68/116
f 42/60/117 48/69/118 46/70/119 44/61/120
f 47/71/121 41/59/122 43/62/123 45/72/124
